# xmcd
#
# Track frame offsets:
# 150
# 28923
# 57718
# 81127
# 102244
# 142586
# 168916
# 191381
# 207480
# 245265
#
# Disc length: 3709 seconds
#
#
# Revision: 1
# Processed by: cddbd v1.5.2PL0 Copyright (c) Steve Scherf et al.
# Submitted via: FreeRIP 2.942 
#
DISCID=830e7b0a
DTITLE=Burhan Öcal&Trakya All Stars - Kırklareli il Sınırı
DYEAR=2004
DGENRE=Ethnic
TTITLE0=Tekirdağ Karşılaması
TTITLE1=Süleyman Aga
TTITLE2=Ferace
TTITLE3=Karakaş Mahallesi
TTITLE4=Gara Guna
TTITLE5=Melike
TTITLE6=Çiftetelli
TTITLE7=Çoban
TTITLE8=Güreş Havası
TTITLE9=Davullarım Çalar Çaydan aşağı
EXTD=featuring Smadj
EXTT0=
EXTT1=
EXTT2=
EXTT3=
EXTT4=
EXTT5=
EXTT6=
EXTT7=
EXTT8=
EXTT9=
PLAYORDER=
